<?xml version="1.0" encoding="UTF-8" standalone="no"?>
<!-- Created with Inkscape (http://www.inkscape.org/) -->

<svg
   xmlns:dc="http://purl.org/dc/elements/1.1/"
   xmlns:cc="http://creativecommons.org/ns#"
   xmlns:rdf="http://www.w3.org/1999/02/22-rdf-syntax-ns#"
   xmlns:svg="http://www.w3.org/2000/svg"
   xmlns="http://www.w3.org/2000/svg"
   xmlns:sodipodi="http://sodipodi.sourceforge.net/DTD/sodipodi-0.dtd"
   xmlns:inkscape="http://www.inkscape.org/namespaces/inkscape"
   id="svg2"
   version="1.1"
   inkscape:version="0.48.4 r9939"
   width="305.8"
   height="303.4"
   xml:space="preserve"
   sodipodi:docname="五行学说.png"><metadata
     id="metadata8"><rdf:RDF><cc:Work
         rdf:about=""><dc:format>image/svg+xml</dc:format><dc:type
           rdf:resource="http://purl.org/dc/dcmitype/StillImage" /><dc:title></dc:title></cc:Work></rdf:RDF></metadata><defs
     id="defs6" /><sodipodi:namedview
     pagecolor="#ffffff"
     bordercolor="#666666"
     borderopacity="1"
     objecttolerance="10"
     gridtolerance="10"
     guidetolerance="10"
     inkscape:pageopacity="0"
     inkscape:pageshadow="2"
     inkscape:window-width="640"
     inkscape:window-height="480"
     id="namedview4"
     showgrid="false"
     inkscape:zoom="0.77785104"
     inkscape:cx="152.89999"
     inkscape:cy="151.7"
     inkscape:window-x="356"
     inkscape:window-y="223"
     inkscape:window-maximized="0"
     inkscape:current-layer="g10" /><g
     id="g10"
     inkscape:groupmode="layer"
     inkscape:label="五行学说"
     transform="matrix(1.25,0,0,-1.25,0,303.4)"><g
       id="g12"
       transform="translate(72,170.72)"><g
         id="g14"
         transform="translate(50.32,-55.8)"><g
           id="g16" /><g
           id="g18"><g
             id="g20"><g
               id="g22"><g
                 id="g24" /><g
                 id="g26" /><g
                 id="g28" /><g
                 id="g30" /><g
                 id="g32" /></g><g
               id="g34"><path
                 d="m 121.62431,35.03903 c 0,7.61368 -6.17195,13.78565 -13.78563,13.78565 -7.61369,0 -13.78564,-6.17197 -13.78564,-13.78565 0,-7.61368 6.17195,-13.78564 13.78564,-13.78564 7.61368,0 13.78563,6.17196 13.78563,13.78564 z"
                 style="fill:none;stroke:#000000;stroke-opacity:1;stroke-width:0.3985;stroke-linecap:butt;stroke-linejoin:miter;stroke-miterlimit:10;stroke-dasharray:none"
                 id="path36" /><g
                 id="g38"><g
                   id="g40"
                   transform="scale(-1,-1)"><g
                     id="g42"
                     transform="matrix(-1,0,0,-1,50.32,-55.8)"><g
                       id="g44" /><g
                       id="g46"
                       transform="translate(152.18,-25.3)"><g
                         id="g48" /><g
                         id="g50"><g
                           id="g52"
                           transform="scale(-1,-1)"><g
                             id="g54"
                             transform="matrix(-1,0,0,-1,152.18,-25.3)"><g
                               id="g56" /><text
                               transform="matrix(1,0,0,-1,152.18,-25.3)"
                               id="text58"><tspan
                                 style="fill:#000000;fill-opacity:1;fill-rule:nonzero;stroke:none;font-family:'Adobe 宋体 Std';font-variant:normal;font-size:11.955;writing-mode:lr;-inkscape-font-specification:AdobeSongStd-Light-Identity-H"
                                 x="0"
                                 y="0"
                                 id="tspan60">火</tspan></text>
</g></g></g></g></g></g></g></g><g
               id="g62"><path
                 d="m 13.71143,113.38937 c 0,7.57271 -6.13873,13.71146 -13.71143,13.71146 -7.57272,0 -13.71146,-6.13875 -13.71146,-13.71146 0,-7.5727 6.13874,-13.71145 13.71146,-13.71145 7.5727,0 13.71143,6.13875 13.71143,13.71145 z"
                 style="fill:none;stroke:#000000;stroke-opacity:1;stroke-width:0.3985;stroke-linecap:butt;stroke-linejoin:miter;stroke-miterlimit:10;stroke-dasharray:none"
                 id="path64" /><g
                 id="g66"><g
                   id="g68"
                   transform="scale(-1,-1)"><g
                     id="g70"
                     transform="matrix(-1,0,0,-1,50.32,-55.8)"><g
                       id="g72" /><g
                       id="g74"
                       transform="translate(44.34,52.99)"><g
                         id="g76" /><g
                         id="g78"><g
                           id="g80"
                           transform="scale(-1,-1)"><g
                             id="g82"
                             transform="matrix(-1,0,0,-1,44.34,52.99)"><g
                               id="g84" /><text
                               transform="matrix(1,0,0,-1,44.34,52.99)"
                               id="text86"><tspan
                                 style="fill:#000000;fill-opacity:1;fill-rule:nonzero;stroke:none;font-family:'Adobe 宋体 Std';font-variant:normal;font-size:11.955;writing-mode:lr;-inkscape-font-specification:AdobeSongStd-Light-Identity-H"
                                 x="0"
                                 y="0"
                                 id="tspan88">木</tspan></text>
</g></g></g></g></g></g></g></g><g
               id="g90"><path
                 d="m -94.05348,35.03848 c 0,7.61368 -6.17195,13.78565 -13.78563,13.78565 -7.61369,0 -13.78565,-6.17197 -13.78565,-13.78565 0,-7.61368 6.17196,-13.78564 13.78565,-13.78564 7.61368,0 13.78563,6.17196 13.78563,13.78564 z"
                 style="fill:none;stroke:#000000;stroke-opacity:1;stroke-width:0.3985;stroke-linecap:butt;stroke-linejoin:miter;stroke-miterlimit:10;stroke-dasharray:none"
                 id="path92" /><g
                 id="g94"><g
                   id="g96"
                   transform="scale(-1,-1)"><g
                     id="g98"
                     transform="matrix(-1,0,0,-1,50.32,-55.8)"><g
                       id="g100" /><g
                       id="g102"
                       transform="translate(-63.49,-25.33)"><g
                         id="g104" /><g
                         id="g106"><g
                           id="g108"
                           transform="scale(-1,-1)"><g
                             id="g110"
                             transform="matrix(-1,0,0,-1,-63.49,-25.33)"><g
                               id="g112" /><text
                               transform="matrix(1,0,0,-1,-63.49,-25.33)"
                               id="text114"><tspan
                                 style="fill:#000000;fill-opacity:1;fill-rule:nonzero;stroke:none;font-family:'Adobe 宋体 Std';font-variant:normal;font-size:11.955;writing-mode:lr;-inkscape-font-specification:AdobeSongStd-Light-Identity-H"
                                 x="0"
                                 y="0"
                                 id="tspan116">水</tspan></text>
</g></g></g></g></g></g></g></g><g
               id="g118"><path
                 d="m -53.15459,-91.73314 c 0,7.45249 -6.04129,13.49376 -13.49377,13.49376 -7.45247,0 -13.49376,-6.04127 -13.49376,-13.49376 0,-7.45248 6.04129,-13.49376 13.49376,-13.49376 7.45248,0 13.49377,6.04128 13.49377,13.49376 z"
                 style="fill:none;stroke:#000000;stroke-opacity:1;stroke-width:0.3985;stroke-linecap:butt;stroke-linejoin:miter;stroke-miterlimit:10;stroke-dasharray:none"
                 id="path120" /><g
                 id="g122"><g
                   id="g124"
                   transform="scale(-1,-1)"><g
                     id="g126"
                     transform="matrix(-1,0,0,-1,50.32,-55.8)"><g
                       id="g128" /><g
                       id="g130"
                       transform="translate(-22.3,-152.32)"><g
                         id="g132" /><g
                         id="g134"><g
                           id="g136"
                           transform="scale(-1,-1)"><g
                             id="g138"
                             transform="matrix(-1,0,0,-1,-22.3,-152.32)"><g
                               id="g140" /><text
                               transform="matrix(1,0,0,-1,-22.3,-152.32)"
                               id="text142"><tspan
                                 style="fill:#000000;fill-opacity:1;fill-rule:nonzero;stroke:none;font-family:'Adobe 宋体 Std';font-variant:normal;font-size:11.955;writing-mode:lr;-inkscape-font-specification:AdobeSongStd-Light-Identity-H"
                                 x="0"
                                 y="0"
                                 id="tspan144">金</tspan></text>
</g></g></g></g></g></g></g></g><g
               id="g146"><path
                 d="m 80.14256,-91.7338 c 0,7.45249 -6.04129,13.49376 -13.49377,13.49376 -7.45247,0 -13.49376,-6.04127 -13.49376,-13.49376 0,-7.45248 6.04129,-13.49375 13.49376,-13.49375 7.45248,0 13.49377,6.04127 13.49377,13.49375 z"
                 style="fill:none;stroke:#000000;stroke-opacity:1;stroke-width:0.3985;stroke-linecap:butt;stroke-linejoin:miter;stroke-miterlimit:10;stroke-dasharray:none"
                 id="path148" /><g
                 id="g150"><g
                   id="g152"
                   transform="scale(-1,-1)"><g
                     id="g154"
                     transform="matrix(-1,0,0,-1,50.32,-55.8)"><g
                       id="g156" /><g
                       id="g158"
                       transform="translate(110.99,-152.24)"><g
                         id="g160" /><g
                         id="g162"><g
                           id="g164"
                           transform="scale(-1,-1)"><g
                             id="g166"
                             transform="matrix(-1,0,0,-1,110.99,-152.24)"><g
                               id="g168" /><text
                               transform="matrix(1,0,0,-1,110.99,-152.24)"
                               id="text170"><tspan
                                 style="fill:#000000;fill-opacity:1;fill-rule:nonzero;stroke:none;font-family:'Adobe 宋体 Std';font-variant:normal;font-size:11.955;writing-mode:lr;-inkscape-font-specification:AdobeSongStd-Light-Identity-H"
                                 x="0"
                                 y="0"
                                 id="tspan172">土</tspan></text>
</g></g></g></g></g></g></g></g><path
               d="M 13.8417,111.93475 C 56.27486,107.49284 84.76973,86.80869 100.6764,51.12239"
               style="fill:none;stroke:#000000;stroke-opacity:1;stroke-width:0.3985;stroke-linecap:butt;stroke-linejoin:miter;stroke-miterlimit:10;stroke-dasharray:none"
               id="path174" /><g
               id="g176"
               transform="matrix(0.40797,-0.91531,0.91531,0.40797,100.6764,51.12239)"><g
                 id="g178"><path
                   d="M 3.58653,0 C 2.52383,0.19925 0.797,0.797 -0.3985,1.49438 l 0,-2.98876 C 0.797,-0.797 2.52383,-0.19925 3.58653,0"
                   style="fill:#000000;fill-opacity:1;fill-rule:nonzero;stroke:none"
                   id="path180" /></g></g><g
               id="g182"><g
                 id="g184"><g
                   id="g186"
                   transform="scale(-1,-1)"><g
                     id="g188"
                     transform="matrix(-1,0,0,-1,50.32,-55.8)"><g
                       id="g190" /><g
                       id="g192"
                       transform="translate(111.73,41.92)"><g
                         id="g194" /><g
                         id="g196"><g
                           id="g198"
                           transform="scale(-1,-1)"><g
                             id="g200"
                             transform="matrix(-1,0,0,-1,111.73,41.92)"><g
                               id="g202" /><text
                               transform="matrix(1,0,0,-1,111.73,41.92)"
                               id="text204"><tspan
                                 style="fill:#000000;fill-opacity:1;fill-rule:nonzero;stroke:none;font-family:'Adobe 宋体 Std';font-variant:normal;font-size:11.955;writing-mode:lr;-inkscape-font-specification:AdobeSongStd-Light-Identity-H"
                                 x="0"
                                 y="0"
                                 id="tspan206">生</tspan></text>
</g></g></g></g></g></g></g></g><path
               d="M 107.10718,21.07166 C 104.90302,-20.5349 96.85057,-45.27032 76.09366,-77.1935"
               style="fill:none;stroke:#000000;stroke-opacity:1;stroke-width:0.3985;stroke-linecap:butt;stroke-linejoin:miter;stroke-miterlimit:10;stroke-dasharray:none"
               id="path208" /><g
               id="g210"
               transform="matrix(-0.54517,-0.83844,0.83844,-0.54517,76.09366,-77.1935)"><g
                 id="g212"><path
                   d="M 3.58653,0 C 2.52383,0.19925 0.797,0.797 -0.3985,1.49438 l 0,-2.98876 C 0.797,-0.797 2.52383,-0.19925 3.58653,0"
                   style="fill:#000000;fill-opacity:1;fill-rule:nonzero;stroke:none"
                   id="path214" /></g></g><g
               id="g216"><g
                 id="g218"><g
                   id="g220"
                   transform="scale(-1,-1)"><g
                     id="g222"
                     transform="matrix(-1,0,0,-1,50.32,-55.8)"><g
                       id="g224" /><g
                       id="g226"
                       transform="translate(152.82,-92.47)"><g
                         id="g228" /><g
                         id="g230"><g
                           id="g232"
                           transform="scale(-1,-1)"><g
                             id="g234"
                             transform="matrix(-1,0,0,-1,152.82,-92.47)"><g
                               id="g236" /><text
                               transform="matrix(1,0,0,-1,152.82,-92.47)"
                               id="text238"><tspan
                                 style="fill:#000000;fill-opacity:1;fill-rule:nonzero;stroke:none;font-family:'Adobe 宋体 Std';font-variant:normal;font-size:11.955;writing-mode:lr;-inkscape-font-specification:AdobeSongStd-Light-Identity-H"
                                 x="0"
                                 y="0"
                                 id="tspan240">生</tspan></text>
</g></g></g></g></g></g></g></g><path
               d="m 52.99945,-92.92766 c -41.17862,-3.6028 -64.81985,-3.60235 -102.42337,-0.31227"
               style="fill:none;stroke:#000000;stroke-opacity:1;stroke-width:0.3985;stroke-linecap:butt;stroke-linejoin:miter;stroke-miterlimit:10;stroke-dasharray:none"
               id="path242" /><g
               id="g244"
               transform="matrix(-0.99681,0.08719,-0.08719,-0.99681,-49.42392,-93.23993)"><g
                 id="g246"><path
                   d="M 3.58653,0 C 2.52383,0.19925 0.797,0.797 -0.3985,1.49438 l 0,-2.98876 C 0.797,-0.797 2.52383,-0.19925 3.58653,0"
                   style="fill:#000000;fill-opacity:1;fill-rule:nonzero;stroke:none"
                   id="path248" /></g></g><g
               id="g250"><g
                 id="g252"><g
                   id="g254"
                   transform="scale(-1,-1)"><g
                     id="g256"
                     transform="matrix(-1,0,0,-1,50.32,-55.8)"><g
                       id="g258" /><g
                       id="g260"
                       transform="translate(44.35,-165.53)"><g
                         id="g262" /><g
                         id="g264"><g
                           id="g266"
                           transform="scale(-1,-1)"><g
                             id="g268"
                             transform="matrix(-1,0,0,-1,44.35,-165.53)"><g
                               id="g270" /><text
                               transform="matrix(1,0,0,-1,44.35,-165.53)"
                               id="text272"><tspan
                                 style="fill:#000000;fill-opacity:1;fill-rule:nonzero;stroke:none;font-family:'Adobe 宋体 Std';font-variant:normal;font-size:11.955;writing-mode:lr;-inkscape-font-specification:AdobeSongStd-Light-Identity-H"
                                 x="0"
                                 y="0"
                                 id="tspan274">生</tspan></text>
</g></g></g></g></g></g></g></g><path
               d="m -74.13817,-80.19994 c -22.71183,34.9298 -30.76507,59.66506 -32.77955,97.689"
               style="fill:none;stroke:#000000;stroke-opacity:1;stroke-width:0.3985;stroke-linecap:butt;stroke-linejoin:miter;stroke-miterlimit:10;stroke-dasharray:none"
               id="path276" /><g
               id="g278"
               transform="matrix(-0.05289,0.99875,-0.99875,-0.05289,-106.91772,17.48906)"><g
                 id="g280"><path
                   d="M 3.58653,0 C 2.52383,0.19925 0.797,0.797 -0.3985,1.49438 l 0,-2.98876 C 0.797,-0.797 2.52383,-0.19925 3.58653,0"
                   style="fill:#000000;fill-opacity:1;fill-rule:nonzero;stroke:none"
                   id="path282" /></g></g><g
               id="g284"><g
                 id="g286"><g
                   id="g288"
                   transform="scale(-1,-1)"><g
                     id="g290"
                     transform="matrix(-1,0,0,-1,50.32,-55.8)"><g
                       id="g292" /><g
                       id="g294"
                       transform="translate(-64.13,-92.47)"><g
                         id="g296" /><g
                         id="g298"><g
                           id="g300"
                           transform="scale(-1,-1)"><g
                             id="g302"
                             transform="matrix(-1,0,0,-1,-64.13,-92.47)"><g
                               id="g304" /><text
                               transform="matrix(1,0,0,-1,-64.13,-92.47)"
                               id="text306"><tspan
                                 style="fill:#000000;fill-opacity:1;fill-rule:nonzero;stroke:none;font-family:'Adobe 宋体 Std';font-variant:normal;font-size:11.955;writing-mode:lr;-inkscape-font-specification:AdobeSongStd-Light-Identity-H"
                                 x="0"
                                 y="0"
                                 id="tspan308">生</tspan></text>
</g></g></g></g></g></g></g></g><path
               d="m -102.14005,47.83904 c 17.36962,38.96984 45.86466,59.65321 84.72957,63.72222"
               style="fill:none;stroke:#000000;stroke-opacity:1;stroke-width:0.3985;stroke-linecap:butt;stroke-linejoin:miter;stroke-miterlimit:10;stroke-dasharray:none"
               id="path310" /><g
               id="g312"
               transform="matrix(0.99504,0.10414,-0.10414,0.99504,-17.41048,111.56126)"><g
                 id="g314"><path
                   d="M 3.58653,0 C 2.52383,0.19925 0.797,0.797 -0.3985,1.49438 l 0,-2.98876 C 0.797,-0.797 2.52383,-0.19925 3.58653,0"
                   style="fill:#000000;fill-opacity:1;fill-rule:nonzero;stroke:none"
                   id="path316" /></g></g><g
               id="g318"><g
                 id="g320"><g
                   id="g322"
                   transform="scale(-1,-1)"><g
                     id="g324"
                     transform="matrix(-1,0,0,-1,50.32,-55.8)"><g
                       id="g326" /><g
                       id="g328"
                       transform="translate(-23.04,41.92)"><g
                         id="g330" /><g
                         id="g332"><g
                           id="g334"
                           transform="scale(-1,-1)"><g
                             id="g336"
                             transform="matrix(-1,0,0,-1,-23.04,41.92)"><g
                               id="g338" /><text
                               transform="matrix(1,0,0,-1,-23.04,41.92)"
                               id="text340"><tspan
                                 style="fill:#000000;fill-opacity:1;fill-rule:nonzero;stroke:none;font-family:'Adobe 宋体 Std';font-variant:normal;font-size:11.955;writing-mode:lr;-inkscape-font-specification:AdobeSongStd-Light-Identity-H"
                                 x="0"
                                 y="0"
                                 id="tspan342">生</tspan></text>
</g></g></g></g></g></g></g></g><path
               d="M 4.3044,100.1405 61.30162,-75.27635"
               style="fill:none;stroke:#000000;stroke-opacity:1;stroke-width:0.3985;stroke-linecap:butt;stroke-linejoin:miter;stroke-miterlimit:10;stroke-dasharray:none"
               id="path344" /><g
               id="g346"
               transform="matrix(0.30946,-0.95242,0.95242,0.30946,61.30162,-75.27635)"><g
                 id="g348"><path
                   d="M 3.58653,0 C 2.52383,0.19925 0.797,0.797 -0.3985,1.49438 l 0,-2.98876 C 0.797,-0.797 2.52383,-0.19925 3.58653,0"
                   style="fill:#000000;fill-opacity:1;fill-rule:nonzero;stroke:none"
                   id="path350" /></g></g><g
               id="g352"><g
                 id="g354"><g
                   id="g356"
                   transform="scale(-1,-1)"><g
                     id="g358"
                     transform="matrix(-1,0,0,-1,50.32,-55.8)"><g
                       id="g360" /><g
                       id="g362"
                       transform="translate(87.86,-49.65)"><g
                         id="g364" /><g
                         id="g366"><g
                           id="g368"
                           transform="scale(-1,-1)"><g
                             id="g370"
                             transform="matrix(-1,0,0,-1,87.86,-49.65)"><g
                               id="g372" /><text
                               transform="matrix(1,0,0,-1,87.86,-49.65)"
                               id="text374"><tspan
                                 style="fill:#000000;fill-opacity:1;fill-rule:nonzero;stroke:none;font-family:'Adobe 宋体 Std';font-variant:normal;font-size:11.955;writing-mode:lr;-inkscape-font-specification:AdobeSongStd-Light-Identity-H"
                                 x="0"
                                 y="0"
                                 id="tspan376">克</tspan></text>
</g></g></g></g></g></g></g></g><path
               d="M 96.4894,26.79314 -52.62534,-81.54428"
               style="fill:none;stroke:#000000;stroke-opacity:1;stroke-width:0.3985;stroke-linecap:butt;stroke-linejoin:miter;stroke-miterlimit:10;stroke-dasharray:none"
               id="path378" /><g
               id="g380"
               transform="matrix(-0.81154,-0.58966,0.58966,-0.81154,-52.62534,-81.54428)"><g
                 id="g382"><path
                   d="M 3.58653,0 C 2.52383,0.19925 0.797,0.797 -0.3985,1.49438 l 0,-2.98876 C 0.797,-0.797 2.52383,-0.19925 3.58653,0"
                   style="fill:#000000;fill-opacity:1;fill-rule:nonzero;stroke:none"
                   id="path384" /></g></g><g
               id="g386"><g
                 id="g388"><g
                   id="g390"
                   transform="scale(-1,-1)"><g
                     id="g392"
                     transform="matrix(-1,0,0,-1,50.32,-55.8)"><g
                       id="g394" /><g
                       id="g396"
                       transform="translate(64.82,-98.6)"><g
                         id="g398" /><g
                         id="g400"><g
                           id="g402"
                           transform="scale(-1,-1)"><g
                             id="g404"
                             transform="matrix(-1,0,0,-1,64.82,-98.6)"><g
                               id="g406" /><text
                               transform="matrix(1,0,0,-1,64.82,-98.6)"
                               id="text408"><tspan
                                 style="fill:#000000;fill-opacity:1;fill-rule:nonzero;stroke:none;font-family:'Adobe 宋体 Std';font-variant:normal;font-size:11.955;writing-mode:lr;-inkscape-font-specification:AdobeSongStd-Light-Identity-H"
                                 x="0"
                                 y="0"
                                 id="tspan410">克</tspan></text>
</g></g></g></g></g></g></g></g><path
               d="M 55.53639,-83.65999 -93.57922,24.67781"
               style="fill:none;stroke:#000000;stroke-opacity:1;stroke-width:0.3985;stroke-linecap:butt;stroke-linejoin:miter;stroke-miterlimit:10;stroke-dasharray:none"
               id="path412" /><g
               id="g414"
               transform="matrix(-0.81154,0.58958,-0.58958,-0.81154,-93.57922,24.67781)"><g
                 id="g416"><path
                   d="M 3.58653,0 C 2.52383,0.19925 0.797,0.797 -0.3985,1.49438 l 0,-2.98876 C 0.797,-0.797 2.52383,-0.19925 3.58653,0"
                   style="fill:#000000;fill-opacity:1;fill-rule:nonzero;stroke:none"
                   id="path418" /></g></g><g
               id="g420"><g
                 id="g422"><g
                   id="g424"
                   transform="scale(-1,-1)"><g
                     id="g426"
                     transform="matrix(-1,0,0,-1,50.32,-55.8)"><g
                       id="g428" /><g
                       id="g430"
                       transform="translate(23.87,-98.6)"><g
                         id="g432" /><g
                         id="g434"><g
                           id="g436"
                           transform="scale(-1,-1)"><g
                             id="g438"
                             transform="matrix(-1,0,0,-1,23.87,-98.6)"><g
                               id="g440" /><text
                               transform="matrix(1,0,0,-1,23.87,-98.6)"
                               id="text442"><tspan
                                 style="fill:#000000;fill-opacity:1;fill-rule:nonzero;stroke:none;font-family:'Adobe 宋体 Std';font-variant:normal;font-size:11.955;writing-mode:lr;-inkscape-font-specification:AdobeSongStd-Light-Identity-H"
                                 x="0"
                                 y="0"
                                 id="tspan444">克</tspan></text>
</g></g></g></g></g></g></g></g><path
               d="M -62.41129,-78.6916 -5.41454,96.7246"
               style="fill:none;stroke:#000000;stroke-opacity:1;stroke-width:0.3985;stroke-linecap:butt;stroke-linejoin:miter;stroke-miterlimit:10;stroke-dasharray:none"
               id="path446" /><g
               id="g448"
               transform="matrix(0.30946,0.95242,-0.95242,0.30946,-5.41454,96.7246)"><g
                 id="g450"><path
                   d="M 3.58653,0 C 2.52383,0.19925 0.797,0.797 -0.3985,1.49438 l 0,-2.98876 C 0.797,-0.797 2.52383,-0.19925 3.58653,0"
                   style="fill:#000000;fill-opacity:1;fill-rule:nonzero;stroke:none"
                   id="path452" /></g></g><g
               id="g454"><g
                 id="g456"><g
                   id="g458"
                   transform="scale(-1,-1)"><g
                     id="g460"
                     transform="matrix(-1,0,0,-1,50.32,-55.8)"><g
                       id="g462" /><g
                       id="g464"
                       transform="translate(0.83,-49.65)"><g
                         id="g466" /><g
                         id="g468"><g
                           id="g470"
                           transform="scale(-1,-1)"><g
                             id="g472"
                             transform="matrix(-1,0,0,-1,0.83,-49.65)"><g
                               id="g474" /><text
                               transform="matrix(1,0,0,-1,0.83,-49.65)"
                               id="text476"><tspan
                                 style="fill:#000000;fill-opacity:1;fill-rule:nonzero;stroke:none;font-family:'Adobe 宋体 Std';font-variant:normal;font-size:11.955;writing-mode:lr;-inkscape-font-specification:AdobeSongStd-Light-Identity-H"
                                 x="0"
                                 y="0"
                                 id="tspan478">克</tspan></text>
</g></g></g></g></g></g></g></g><path
               d="m -93.85422,35.03848 184.12146,5.5e-4"
               style="fill:none;stroke:#000000;stroke-opacity:1;stroke-width:0.3985;stroke-linecap:butt;stroke-linejoin:miter;stroke-miterlimit:10;stroke-dasharray:none"
               id="path480" /><g
               id="g482"
               transform="translate(90.26724,35.03903)"><g
                 id="g484"><path
                   d="M 3.58653,0 C 2.52383,0.19925 0.797,0.797 -0.3985,1.49438 l 0,-2.98876 C 0.797,-0.797 2.52383,-0.19925 3.58653,0"
                   style="fill:#000000;fill-opacity:1;fill-rule:nonzero;stroke:none"
                   id="path486" /></g></g><g
               id="g488"><g
                 id="g490"><g
                   id="g492"
                   transform="scale(-1,-1)"><g
                     id="g494"
                     transform="matrix(-1,0,0,-1,50.32,-55.8)"><g
                       id="g496" /><g
                       id="g498"
                       transform="translate(44.34,-15.54)"><g
                         id="g500" /><g
                         id="g502"><g
                           id="g504"
                           transform="scale(-1,-1)"><g
                             id="g506"
                             transform="matrix(-1,0,0,-1,44.34,-15.54)"><g
                               id="g508" /><text
                               transform="matrix(1,0,0,-1,44.34,-15.54)"
                               id="text510"><tspan
                                 style="fill:#000000;fill-opacity:1;fill-rule:nonzero;stroke:none;font-family:'Adobe 宋体 Std';font-variant:normal;font-size:11.955;writing-mode:lr;-inkscape-font-specification:AdobeSongStd-Light-Identity-H"
                                 x="0"
                                 y="0"
                                 id="tspan512">克</tspan></text>
</g></g></g></g></g></g></g></g></g></g></g></g></g></svg>